<svg width="90" height="90" viewBox="0 0 90 90" fill="none" xmlns="http://www.w3.org/2000/svg">
<g clip-path="url(#clip0_2_5)">
<mask id="path-1-inside-1_2_5" fill="white">
<path fill-rule="evenodd" clip-rule="evenodd" d="M15.4562 29.5438L30.9124 45L15.4562 60.4562L0 45L15.4562 29.5438ZM16.1633 61.1633L45 90L74.3339 60.6661L59.3749 45.7071L58.6678 45L59.3749 44.2929L74.3339 29.3339L45 0L16.1633 28.8367L31.6195 44.2929L32.3266 45L31.6195 45.7071L16.1633 61.1633ZM60.082 45L75.041 30.041L90 45L75.041 59.959L60.082 45Z"/>
</mask>
<path fill-rule="evenodd" clip-rule="evenodd" d="M15.4562 29.5438L30.9124 45L15.4562 60.4562L0 45L15.4562 29.5438ZM16.1633 61.1633L45 90L74.3339 60.6661L59.3749 45.7071L58.6678 45L59.3749 44.2929L74.3339 29.3339L45 0L16.1633 28.8367L31.6195 44.2929L32.3266 45L31.6195 45.7071L16.1633 61.1633ZM60.082 45L75.041 30.041L90 45L75.041 59.959L60.082 45Z" fill="#D9D9D9" fill-opacity="0.05"/>
<path d="M30.9124 45L32.3266 46.4142L33.7408 45L32.3266 43.5858L30.9124 45ZM15.4562 29.5438L16.8704 28.1296L15.4562 26.7154L14.042 28.1296L15.4562 29.5438ZM15.4562 60.4562L14.042 61.8704L15.4562 63.2846L16.8704 61.8704L15.4562 60.4562ZM0 45L-1.41421 43.5858L-2.82843 45L-1.41421 46.4142L0 45ZM16.1633 61.1633L14.7491 59.7491L13.3349 61.1633L14.7491 62.5775L16.1633 61.1633ZM45 90L43.5858 91.4142L45 92.8284L46.4142 91.4142L45 90ZM74.3339 60.6661L75.7481 62.0803L77.1623 60.6661L75.7481 59.2519L74.3339 60.6661ZM58.6678 45L57.2535 43.5858L55.8393 45L57.2535 46.4142L58.6678 45ZM59.3749 44.2929L57.9606 42.8787L57.9606 42.8787L59.3749 44.2929ZM74.3339 29.3339L75.7481 30.7481L77.1623 29.3339L75.7481 27.9197L74.3339 29.3339ZM45 0L46.4142 -1.41421L45 -2.82843L43.5858 -1.41421L45 0ZM16.1633 28.8367L14.7491 27.4225L13.3349 28.8367L14.7491 30.2509L16.1633 28.8367ZM31.6195 44.2929L33.0337 42.8787L33.0337 42.8787L31.6195 44.2929ZM32.3266 45L33.7408 46.4142L35.155 45L33.7408 43.5858L32.3266 45ZM31.6195 45.7071L33.0337 47.1213L33.0337 47.1213L31.6195 45.7071ZM75.041 30.041L76.4552 28.6268L75.041 27.2126L73.6268 28.6268L75.041 30.041ZM60.082 45L58.6678 43.5858L57.2535 45L58.6678 46.4142L60.082 45ZM90 45L91.4142 46.4142L92.8284 45L91.4142 43.5858L90 45ZM75.041 59.959L73.6268 61.3732L75.041 62.7874L76.4552 61.3732L75.041 59.959ZM32.3266 43.5858L16.8704 28.1296L14.042 30.958L29.4982 46.4142L32.3266 43.5858ZM16.8704 61.8704L32.3266 46.4142L29.4982 43.5858L14.042 59.042L16.8704 61.8704ZM-1.41421 46.4142L14.042 61.8704L16.8704 59.042L1.41421 43.5858L-1.41421 46.4142ZM14.042 28.1296L-1.41421 43.5858L1.41421 46.4142L16.8704 30.958L14.042 28.1296ZM14.7491 62.5775L43.5858 91.4142L46.4142 88.5858L17.5775 59.7491L14.7491 62.5775ZM46.4142 91.4142L75.7481 62.0803L72.9197 59.2519L43.5858 88.5858L46.4142 91.4142ZM75.7481 59.2519L60.7891 44.2929L57.9606 47.1213L72.9197 62.0803L75.7481 59.2519ZM60.7891 44.2929L60.082 43.5858L57.2535 46.4142L57.9606 47.1213L60.7891 44.2929ZM60.082 46.4142L60.7891 45.7071L57.9606 42.8787L57.2535 43.5858L60.082 46.4142ZM60.7891 45.7071L75.7481 30.7481L72.9197 27.9197L57.9606 42.8787L60.7891 45.7071ZM75.7481 27.9197L46.4142 -1.41421L43.5858 1.41421L72.9197 30.7481L75.7481 27.9197ZM43.5858 -1.41421L14.7491 27.4225L17.5775 30.2509L46.4142 1.41421L43.5858 -1.41421ZM33.0337 42.8787L17.5775 27.4225L14.7491 30.2509L30.2053 45.7071L33.0337 42.8787ZM33.7408 43.5858L33.0337 42.8787L30.2053 45.7071L30.9124 46.4142L33.7408 43.5858ZM33.0337 47.1213L33.7408 46.4142L30.9124 43.5858L30.2053 44.2929L33.0337 47.1213ZM17.5775 62.5775L33.0337 47.1213L30.2053 44.2929L14.7491 59.7491L17.5775 62.5775ZM73.6268 28.6268L58.6678 43.5858L61.4962 46.4142L76.4552 31.4552L73.6268 28.6268ZM91.4142 43.5858L76.4552 28.6268L73.6268 31.4552L88.5858 46.4142L91.4142 43.5858ZM76.4552 61.3732L91.4142 46.4142L88.5858 43.5858L73.6268 58.5448L76.4552 61.3732ZM58.6678 46.4142L73.6268 61.3732L76.4552 58.5448L61.4962 43.5858L58.6678 46.4142Z" fill="white" mask="url(#path-1-inside-1_2_5)"/>
</g>
<defs>
<clipPath id="clip0_2_5">
<rect width="90" height="90" fill="white"/>
</clipPath>
</defs>
</svg>
