<svg width="92" height="90" viewBox="0 0 92 90" fill="none" xmlns="http://www.w3.org/2000/svg">
<mask id="path-1-inside-1_2_5" fill="white">
<path fill-rule="evenodd" clip-rule="evenodd" d="M14.3349 31.6651L27.6697 45L14.3349 58.3349L1 45L14.3349 31.6651ZM17.1633 61.1633L46 90L75.3339 60.6661L62.4962 47.8284L59.6678 45L62.4962 42.1716L75.3339 29.3339L46 0L17.1633 28.8367L30.4982 42.1716L33.3266 45L30.4982 47.8284L17.1633 61.1633ZM65.3246 45L78.1623 32.1623L91 45L78.1623 57.8377L65.3246 45Z"/>
</mask>
<path fill-rule="evenodd" clip-rule="evenodd" d="M14.3349 31.6651L27.6697 45L14.3349 58.3349L1 45L14.3349 31.6651ZM17.1633 61.1633L46 90L75.3339 60.6661L62.4962 47.8284L59.6678 45L62.4962 42.1716L75.3339 29.3339L46 0L17.1633 28.8367L30.4982 42.1716L33.3266 45L30.4982 47.8284L17.1633 61.1633ZM65.3246 45L78.1623 32.1623L91 45L78.1623 57.8377L65.3246 45Z" fill="#D9D9D9" fill-opacity="0.05"/>
<path d="M27.6697 45L29.084 46.4142L30.4982 45L29.084 43.5858L27.6697 45ZM14.3349 31.6651L15.7491 30.2509L14.3349 28.8367L12.9207 30.2509L14.3349 31.6651ZM14.3349 58.3349L12.9207 59.7491L14.3349 61.1633L15.7491 59.7491L14.3349 58.3349ZM1 45L-0.41421 43.5858L-1.82842 45L-0.41421 46.4142L1 45ZM17.1633 61.1633L15.7491 59.7491L14.3349 61.1633L15.7491 62.5775L17.1633 61.1633ZM46 90L44.5858 91.4142L46 92.8284L47.4142 91.4142L46 90ZM75.3339 60.6661L76.7481 62.0803L78.1623 60.6661L76.7481 59.2519L75.3339 60.6661ZM62.4962 47.8284L63.9104 46.4142L63.9104 46.4142L62.4962 47.8284ZM59.6678 45L58.2535 43.5858L56.8393 45L58.2535 46.4142L59.6678 45ZM62.4962 42.1716L63.9104 43.5858L63.9104 43.5858L62.4962 42.1716ZM75.3339 29.3339L76.7481 30.7481L78.1623 29.3339L76.7481 27.9197L75.3339 29.3339ZM46 0L47.4142 -1.41421L46 -2.82843L44.5858 -1.41421L46 0ZM17.1633 28.8367L15.7491 27.4225L14.3349 28.8367L15.7491 30.2509L17.1633 28.8367ZM30.4982 42.1716L29.084 43.5858L29.084 43.5858L30.4982 42.1716ZM33.3266 45L34.7408 46.4142L36.155 45L34.7408 43.5858L33.3266 45ZM78.1623 32.1623L79.5765 30.7481L78.1623 29.3339L76.7481 30.7481L78.1623 32.1623ZM65.3246 45L63.9104 43.5858L62.4962 45L63.9104 46.4142L65.3246 45ZM91 45L92.4142 46.4142L93.8284 45L92.4142 43.5858L91 45ZM78.1623 57.8377L76.7481 59.2519L78.1623 60.6661L79.5765 59.2519L78.1623 57.8377ZM29.084 43.5858L15.7491 30.2509L12.9207 33.0793L26.2555 46.4142L29.084 43.5858ZM15.7491 59.7491L29.084 46.4142L26.2555 43.5858L12.9207 56.9207L15.7491 59.7491ZM-0.41421 46.4142L12.9207 59.7491L15.7491 56.9207L2.41422 43.5858L-0.41421 46.4142ZM12.9207 30.2509L-0.41421 43.5858L2.41422 46.4142L15.7491 33.0793L12.9207 30.2509ZM15.7491 62.5775L44.5858 91.4142L47.4142 88.5858L18.5775 59.7491L15.7491 62.5775ZM47.4142 91.4142L76.7481 62.0803L73.9197 59.2519L44.5858 88.5858L47.4142 91.4142ZM76.7481 59.2519L63.9104 46.4142L61.082 49.2426L73.9197 62.0803L76.7481 59.2519ZM63.9104 46.4142L61.082 43.5858L58.2535 46.4142L61.082 49.2426L63.9104 46.4142ZM61.082 46.4142L63.9104 43.5858L61.082 40.7574L58.2535 43.5858L61.082 46.4142ZM63.9104 43.5858L76.7481 30.7481L73.9197 27.9197L61.082 40.7574L63.9104 43.5858ZM76.7481 27.9197L47.4142 -1.41421L44.5858 1.41421L73.9197 30.7481L76.7481 27.9197ZM44.5858 -1.41421L15.7491 27.4225L18.5775 30.2509L47.4142 1.41421L44.5858 -1.41421ZM31.9124 40.7574L18.5775 27.4225L15.7491 30.2509L29.084 43.5858L31.9124 40.7574ZM34.7408 43.5858L31.9124 40.7574L29.084 43.5858L31.9124 46.4142L34.7408 43.5858ZM31.9124 49.2426L34.7408 46.4142L31.9124 43.5858L29.084 46.4142L31.9124 49.2426ZM18.5775 62.5775L31.9124 49.2426L29.084 46.4142L15.7491 59.7491L18.5775 62.5775ZM76.7481 30.7481L63.9104 43.5858L66.7388 46.4142L79.5765 33.5765L76.7481 30.7481ZM92.4142 43.5858L79.5765 30.7481L76.7481 33.5765L89.5858 46.4142L92.4142 43.5858ZM79.5765 59.2519L92.4142 46.4142L89.5858 43.5858L76.7481 56.4235L79.5765 59.2519ZM63.9104 46.4142L76.7481 59.2519L79.5765 56.4235L66.7388 43.5858L63.9104 46.4142Z" fill="white" mask="url(#path-1-inside-1_2_5)"/>
</svg>
